<?xml version="1.0" encoding="utf-8"?>
<!-- Designed by Vexels.com - 2016 All Rights Reserved - https://vexels.com/terms-and-conditions/  -->

<svg version="1.1" id="Layer_1" xmlns="http://www.w3.org/2000/svg" xmlns:xlink="http://www.w3.org/1999/xlink" x="0px" y="0px"
	 width="1200px" height="1200px" viewBox="0 0 1200 1200" enable-background="new 0 0 1200 1200" xml:space="preserve">
<g>
	<g>
		<path fill="#00A7A4" d="M717.417,347.314H487.091c-50.14,0.071-53.144,40.556-53.144,90.731v86.635
			c0,50.199,23.838,90.892,53.144,90.892h230.326c29.354,0,53.18-40.693,53.18-90.892v-86.635
			C770.597,387.87,771.939,348.192,717.417,347.314z"/>
		<path fill="#00A7A4" d="M466.398,653.606c-13.607,0-24.602,11.052-24.602,24.579v45.066c0,13.548,10.995,24.508,24.602,24.508
			c13.64,0,24.659-10.96,24.659-24.508v-45.066C491.057,664.658,480.038,653.606,466.398,653.606z"/>
		<path fill="#00A7A4" d="M740.18,653.606c-13.652,0-24.6,11.052-24.6,24.579v45.066c0,13.548,10.948,24.508,24.6,24.508
			c13.562,0,24.557-10.96,24.557-24.508v-45.066C764.737,664.658,753.742,653.606,740.18,653.606z"/>
		<path fill="#00A7A4" d="M600.028,50.04C296.234,50.04,50,296.308,50,600.036c0,303.749,246.234,549.924,550.028,549.924
			c303.726,0,549.972-246.175,549.972-549.924C1150,296.308,903.754,50.04,600.028,50.04z M767.858,827.667
			c0.357,1.849,0.601,3.63,0.601,5.526v51.655c0,17.362-15.608,31.514-34.845,31.514s-34.833-14.151-34.833-31.514v-48.348H506.316
			v48.348c0,17.362-15.548,31.514-34.797,31.514c-19.249,0-34.88-14.151-34.88-31.514v-51.655c0-0.878,0.104-1.688,0.197-2.567
			c-15.399-8.024-28-23.93-35.202-44.254h396.502C791.626,804.338,780.979,818.973,767.858,827.667z M849.002,576.127
			l-32.255,13.827c-3.561,1.617-7.861,1.108-11.987-0.81v61.758c0,4.091-0.104,8.069-0.244,12.139h0.244v84.116
			c0,5.457-0.452,10.752-1.122,16.117H396.014c-0.658-5.365-1.087-10.659-1.087-16.117v-84.116h0.289
			c-0.161-4.07-0.289-8.048-0.289-12.139v-62.499c-3.999,1.852-8.221,2.29-11.665,0.741l-32.207-13.919
			c-7.191-3.076-8.578-13.086-3.076-22.265c5.562-9.156,15.828-14.151,23.018-10.984l23.93,10.382v-30.775h0.173
			c0-0.208-0.045-0.301-0.045-0.44v-99.354c0-57.503,29.075-104.07,64.867-104.07h57.053c-0.092-0.81-0.253-1.525-0.253-2.29
			c0-17.433,14.092-31.63,31.561-31.63h114.846c17.49,0,31.525,14.196,31.525,31.63c0,0.765-0.116,1.48-0.173,2.29h46.371
			c35.816,0,64.855,46.567,64.855,104.07v99.354c0,5.734-0.405,11.4-0.947,16.995v15.167l24.231-10.382
			c7.226-3.166,17.561,1.688,23.018,10.915C857.476,563.041,856.1,572.935,849.002,576.127z"/>
	</g>
</g>
</svg>
